<?xml version="1.0" standalone="no"?>
<!DOCTYPE svg PUBLIC "-//W3C//DTD SVG 20010904//EN"
 "http://www.w3.org/TR/2001/REC-SVG-20010904/DTD/svg10.dtd">
<svg version="1.0" xmlns="http://www.w3.org/2000/svg"
 width="134.000000pt" height="110.000000pt" viewBox="0 0 134.000000 110.000000"
 preserveAspectRatio="xMidYMid meet">

<g transform="translate(0.000000,110.000000) scale(0.100000,-0.100000)"
fill="#000000" stroke="none">
<path d="M227 996 c-87 -32 -160 -106 -192 -197 -19 -53 -19 -152 0 -215 44
-149 236 -344 484 -493 108 -65 137 -66 241 -10 41 23 104 60 140 84 71 48
237 192 253 220 15 28 -14 42 -101 51 l-76 7 -46 -51 c-76 -85 -231 -211 -269
-218 -87 -17 -345 170 -442 319 -74 114 -86 211 -38 297 33 59 62 74 155 80
73 5 88 10 143 45 33 22 61 43 61 47 0 11 -175 48 -226 48 -27 -1 -66 -7 -87
-14z"/>
<path d="M895 986 c-60 -15 -284 -110 -398 -168 -45 -23 -116 -56 -157 -73
-75 -31 -75 -31 -78 -71 -6 -85 31 -118 108 -95 22 6 99 51 172 100 149 99
212 133 348 186 117 46 146 43 209 -22 74 -78 84 -130 32 -177 -35 -32 -91
-25 -169 23 l-69 41 -57 -25 c-34 -15 -54 -30 -50 -36 3 -6 40 -33 80 -59 78
-51 159 -82 258 -99 103 -19 112 -17 141 34 100 170 58 360 -94 428 -57 26
-202 33 -276 13z"/>
</g>
</svg>
